<?xml version="1.0" standalone="no"?>
<!DOCTYPE svg PUBLIC "-//W3C//DTD SVG 1.1//EN" "http://www.w3.org/Graphics/SVG/1.1/DTD/svg11.dtd" >
<svg xmlns="http://www.w3.org/2000/svg">
<metadata></metadata>
<defs>
<font id="calibrebold" horiz-adv-x="978" >
<font-face units-per-em="2048" ascent="1331" descent="-717" />
<missing-glyph horiz-adv-x="409" />
<glyph horiz-adv-x="2048" />
<glyph horiz-adv-x="2048" />
<glyph unicode="&#xd;" horiz-adv-x="2048" />
<glyph unicode=" "  horiz-adv-x="409" />
<glyph unicode="&#x09;" horiz-adv-x="409" />
<glyph unicode="&#xa0;" horiz-adv-x="409" />
<glyph unicode="!" horiz-adv-x="489" d="M49 1257h391l-71 -835h-248zM53 168q0 76 56.5 128t136.5 52q79 0 134.5 -52t55.5 -128q0 -77 -55.5 -129.5t-134.5 -52.5q-80 0 -136.5 52.5t-56.5 129.5z" />
<glyph unicode="&#x22;" horiz-adv-x="729" d="M74 727v530h248v-530h-248zM410 727v530h247v-530h-247z" />
<glyph unicode="#" horiz-adv-x="1300" d="M41 319l47 203h199l51 213h-205l45 203h209l76 319h231l-78 -319h213l78 319h230l-76 -319h199l-48 -203h-200l-51 -213h206l-45 -203h-209l-75 -319h-232l76 319h-213l-76 -319h-229l76 319h-199zM518 522h213l51 213h-213z" />
<glyph unicode="$" horiz-adv-x="1058" d="M41 377h319q40 -117 187 -117q65 0 105 29.5t40 79.5q0 45 -28.5 68.5t-94.5 39.5l-202 47q-141 34 -222.5 114.5t-81.5 227.5q0 146 94 246t251 127v186h262v-192q136 -32 217.5 -121t105.5 -221h-303q-47 106 -174 106q-63 0 -101 -28t-38 -74q0 -40 24.5 -62.5 t73.5 -35.5l223 -56q310 -76 310 -352q0 -148 -92 -245.5t-246 -127.5v-192h-262v194q-151 30 -247 122t-120 237z" />
<glyph unicode="%" horiz-adv-x="1392" d="M49 975q0 126 86.5 214.5t210.5 88.5q126 0 214.5 -88.5t88.5 -214.5q0 -124 -88.5 -210.5t-214.5 -86.5q-124 0 -210.5 86t-86.5 211zM201 0l807 1257h184l-807 -1257h-184zM240 975q0 -44 31.5 -75.5t74.5 -31.5q46 0 79.5 31.5t33.5 75.5q0 46 -33.5 79t-79.5 33 q-43 0 -74.5 -33t-31.5 -79zM743 283q0 124 89 210.5t215 86.5q125 0 212 -86.5t87 -210.5q0 -126 -87.5 -214.5t-211.5 -88.5q-126 0 -215 88.5t-89 214.5zM934 283q0 -46 33.5 -79.5t79.5 -33.5q44 0 75 33.5t31 79.5q0 44 -31 75t-75 31q-46 0 -79.5 -31t-33.5 -75z" />
<glyph unicode="&#x26;" horiz-adv-x="1247" d="M55 379q0 101 53.5 187.5t143.5 138.5q-68 101 -68 215q0 163 117 260.5t303 97.5q183 0 293 -99.5t121 -254.5h-309q-3 43 -30 72.5t-75 29.5q-49 0 -79.5 -30t-30.5 -76q0 -28 15 -58.5t30 -49t47 -54.5l239 -279q30 79 33 187h283q-3 -226 -129 -404l227 -262h-360 l-66 72q-147 -92 -311 -92q-203 0 -325 107.5t-122 291.5zM350 379q0 -67 41.5 -109.5t114.5 -42.5q66 0 137 33l-227 252q-66 -46 -66 -133z" />
<glyph unicode="'" horiz-adv-x="409" d="M74 727v530h262v-530h-262z" />
<glyph unicode="(" horiz-adv-x="684" d="M61 580q0 289 156.5 490t425.5 261v-301q-134 -45 -211.5 -157.5t-77.5 -292.5t77.5 -293t211.5 -158v-301q-269 60 -425.5 261.5t-156.5 490.5z" />
<glyph unicode=")" horiz-adv-x="684" d="M41 129q134 45 211.5 158t77.5 293t-77.5 292.5t-211.5 157.5v301q269 -60 425.5 -261t156.5 -490t-156.5 -490.5t-425.5 -261.5v301z" />
<glyph unicode="*" horiz-adv-x="704" d="M49 936l152 88l-152 88l76 131l151 -88v176h154v-176l150 88l77 -131l-153 -88l153 -88l-77 -131l-150 88v-176h-154v176l-151 -88z" />
<glyph unicode="+" horiz-adv-x="1138" d="M104 494v237h347v346h237v-346h346v-237h-346v-344h-237v344h-347z" />
<glyph unicode="," horiz-adv-x="456" d="M25 -215l153 235q-59 11 -99 56t-40 112q0 78 54 128.5t136 50.5q79 0 134 -53t55 -146t-78 -213l-113 -170h-202z" />
<glyph unicode="-" horiz-adv-x="638" d="M74 401v271h493v-271h-493z" />
<glyph unicode="." horiz-adv-x="456" d="M39 178q0 81 54.5 136t133.5 55q80 0 135.5 -55t55.5 -136t-55.5 -136.5t-135.5 -55.5q-78 0 -133 55.5t-55 136.5z" />
<glyph unicode="/" horiz-adv-x="806" d="M10 -172l508 1503h279l-508 -1503h-279z" />
<glyph unicode="0" horiz-adv-x="1144" d="M51 629q0 288 144.5 468.5t375.5 180.5q232 0 377.5 -181t145.5 -468t-145.5 -468t-377.5 -181q-231 0 -375.5 180.5t-144.5 468.5zM369 629q0 -102 19.5 -180.5t66 -129.5t116.5 -51t116.5 51t66.5 129.5t20 180.5t-20 180.5t-66.5 129t-116.5 50.5t-116.5 -50.5 t-66 -129t-19.5 -180.5z" />
<glyph unicode="1" horiz-adv-x="751" d="M27 760v311l391 186h221v-1257h-320v901z" />
<glyph unicode="2" horiz-adv-x="1005" d="M31 858q19 181 143.5 300.5t319.5 119.5q206 0 328 -107.5t122 -283.5q0 -58 -18 -111t-57.5 -106t-73 -88.5t-93.5 -94.5l-206 -204h452v-283h-911v211l432 430q76 78 109.5 126t33.5 99q0 52 -31.5 84.5t-86.5 32.5q-56 0 -88 -35.5t-35 -89.5h-340z" />
<glyph unicode="3" horiz-adv-x="997" d="M16 403h328q6 -67 46 -107t108 -40q62 0 100.5 35.5t38.5 95.5q0 63 -45 97t-119 34h-78v236h68q71 0 115.5 32t44.5 95q0 54 -34 88.5t-93 34.5q-63 0 -101.5 -40t-44.5 -100h-315q21 178 146.5 296t324.5 118q196 0 312 -106.5t116 -278.5q0 -81 -39 -153t-98 -105 q74 -35 113.5 -105.5t39.5 -158.5q0 -171 -121.5 -281t-324.5 -110q-215 0 -345.5 115.5t-142.5 307.5z" />
<glyph unicode="4" horiz-adv-x="1073" d="M37 233v242l381 782h313l-346 -757h199v213h282v-213h172v-267h-172v-233h-282v233h-547z" />
<glyph unicode="5" horiz-adv-x="1017" d="M41 403h319q8 -68 50 -107.5t112 -39.5q65 0 105.5 44t40.5 114q0 69 -41 113t-111 44q-80 0 -145 -65h-265v751h775v-280h-510v-189q78 46 190 46q189 0 300.5 -116t111.5 -304q0 -195 -124.5 -314.5t-328.5 -119.5q-211 0 -338 114.5t-141 308.5z" />
<glyph unicode="6" horiz-adv-x="1060" d="M51 600q0 197 58.5 349.5t173.5 240.5t270 88q184 0 298.5 -97t145.5 -266h-309q-31 95 -133 95q-86 0 -139.5 -80t-55.5 -185v-10q29 41 91 67.5t141 26.5q188 0 302 -117t114 -290q0 -193 -127 -317.5t-340 -124.5q-122 0 -222 54t-163 154q-105 158 -105 412zM373 414 q0 -75 47.5 -122.5t122.5 -47.5q74 0 123 48t49 122q0 76 -49 124t-123 48q-75 0 -122.5 -48t-47.5 -124z" />
<glyph unicode="7" horiz-adv-x="954" d="M27 975v282h880v-221l-381 -1036h-331l366 975h-534z" />
<glyph unicode="8" horiz-adv-x="1040" d="M47 348q0 107 56.5 184t146.5 107q-77 37 -120.5 108.5t-43.5 163.5q0 115 61.5 200t158.5 126t214 41q118 0 215 -41t158 -126t61 -200q0 -92 -43 -163.5t-118 -108.5q89 -31 145.5 -108t56.5 -183q0 -168 -136 -268t-339 -100q-132 0 -238.5 43t-170.5 128t-64 197z M362 373q0 -62 45 -101t113 -39q70 0 115 39t45 101q0 63 -45 101t-115 38q-69 0 -113.5 -38t-44.5 -101zM379 901q0 -56 40.5 -91.5t100.5 -35.5q61 0 101.5 35.5t40.5 91.5q0 59 -40.5 95t-101.5 36q-60 0 -100.5 -36t-40.5 -95z" />
<glyph unicode="9" horiz-adv-x="1060" d="M53 836q0 193 127 317.5t340 124.5q121 0 221.5 -54.5t163.5 -154.5q105 -158 105 -412q0 -197 -58.5 -349.5t-173.5 -240t-270 -87.5q-184 0 -299 96.5t-146 265.5h310q31 -94 133 -94q86 0 139 79.5t55 184.5v10q-29 -41 -90.5 -67.5t-140.5 -26.5q-187 0 -301.5 117.5 t-114.5 290.5zM346 844q0 -76 49 -124t123 -48q75 0 122.5 48t47.5 124q0 75 -47.5 122.5t-122.5 47.5q-74 0 -123 -48t-49 -122z" />
<glyph unicode=":" horiz-adv-x="456" d="M39 178q0 81 54.5 136t133.5 55q80 0 135.5 -55t55.5 -136t-55.5 -136.5t-135.5 -55.5q-78 0 -133 55.5t-55 136.5zM39 721q0 81 54.5 135.5t133.5 54.5q80 0 135.5 -54.5t55.5 -135.5t-55.5 -137t-135.5 -56q-78 0 -133 56t-55 137z" />
<glyph unicode=";" horiz-adv-x="456" d="M25 -215l153 235q-59 11 -99 56t-40 112q0 78 54 128.5t136 50.5q79 0 134 -53t55 -146t-78 -213l-113 -170h-202zM39 721q0 81 54.5 135.5t133.5 54.5q80 0 135.5 -54.5t55.5 -135.5t-55.5 -137t-135.5 -56q-78 0 -133 56t-55 137z" />
<glyph unicode="&#x3c;" horiz-adv-x="886" d="M86 461v295l707 313v-264l-484 -197l484 -194v-267z" />
<glyph unicode="=" horiz-adv-x="1175" d="M125 324v211h926v-211h-926zM125 696v215h926v-215h-926z" />
<glyph unicode="&#x3e;" horiz-adv-x="886" d="M96 147v267l484 194l-484 197v264l707 -313v-295z" />
<glyph unicode="?" horiz-adv-x="972" d="M29 858q20 184 141.5 302t325.5 118q198 0 317 -101.5t119 -275.5q0 -44 -11 -84.5t-36.5 -80.5t-44 -65t-57 -68.5t-52.5 -61.5q-56 -65 -59 -119h-318q2 56 22.5 101t78.5 116q15 19 42 49.5t41 47.5t30 41t23 45.5t7 45.5q0 52 -32 83.5t-83 31.5q-56 0 -88 -36 t-35 -89h-331zM315 168q0 77 55.5 128.5t135.5 51.5q82 0 138 -51t56 -129t-56 -130t-138 -52q-80 0 -135.5 52.5t-55.5 129.5z" />
<glyph unicode="@" horiz-adv-x="1554" d="M41 389q0 215 97 392t277.5 282.5t409.5 105.5q150 0 279 -46.5t218.5 -127.5t140 -193.5t50.5 -240.5q0 -122 -34 -219.5t-93 -158t-135.5 -92.5t-165.5 -32q-73 0 -136.5 26.5t-100.5 76.5q-31 -48 -86.5 -73.5t-116.5 -25.5q-130 0 -205 89t-75 227q0 116 46.5 215.5 t134.5 161t199 61.5q56 0 105 -21.5t70 -52.5l12 58h256l-86 -498q-8 -43 4.5 -63.5t48.5 -20.5q91 0 145 90t54 252q0 211 -148.5 333t-380.5 122q-274 0 -444 -173.5t-170 -453.5q0 -124 38 -222t99 -159t143.5 -101t165 -55.5t170.5 -15.5q237 0 459 98v-153 q-83 -41 -205 -68.5t-254 -27.5q-123 0 -236 25.5t-214 81t-175 136t-117.5 199t-43.5 262.5zM631 401q0 -53 26.5 -83.5t77.5 -30.5q73 0 115 67l31 176q-8 28 -35.5 46t-63.5 18q-64 0 -107.5 -56.5t-43.5 -136.5z" />
<glyph unicode="A" horiz-adv-x="1323" d="M14 0l480 1257h335l480 -1257h-334l-90 244h-457l-88 -244h-326zM528 514h258l-129 354z" />
<glyph unicode="B" horiz-adv-x="1140" d="M94 0v1257h539q199 0 309.5 -87.5t110.5 -254.5q0 -97 -48 -168.5t-120 -97.5q90 -30 147.5 -111.5t57.5 -185.5q0 -169 -110 -260.5t-308 -91.5h-578zM408 270h221q68 0 105.5 33t37.5 88q0 58 -37.5 90.5t-105.5 32.5h-221v-244zM408 760h188q147 0 147 114 q0 113 -147 113h-188v-227z" />
<glyph unicode="C" horiz-adv-x="1234" d="M45 629q0 285 170 467t434 182q227 0 367.5 -121t175.5 -321h-328q-55 153 -215 153q-127 0 -199.5 -100t-72.5 -260q0 -159 72.5 -260t199.5 -101q160 0 215 156h328q-35 -201 -175.5 -322.5t-367.5 -121.5q-264 0 -434 182t-170 467z" />
<glyph unicode="D" horiz-adv-x="1247" d="M94 0v1257h475q295 0 465 -169.5t170 -458.5t-170 -459t-465 -170h-475zM418 285h135q155 0 240.5 92t85.5 252q0 161 -85.5 253.5t-240.5 92.5h-135v-690z" />
<glyph unicode="E" horiz-adv-x="1062" d="M94 0v1257h899v-282h-575v-197h526v-276h-526v-217h575v-285h-899z" />
<glyph unicode="F" horiz-adv-x="1040" d="M94 0v1257h885v-284h-559v-250h514v-279h-514v-444h-326z" />
<glyph unicode="G" horiz-adv-x="1275" d="M45 629q0 286 174 467.5t445 181.5q234 0 377 -120.5t180 -321.5h-336q-56 153 -221 153q-134 0 -210.5 -100t-76.5 -260q0 -163 78.5 -262t212.5 -99q92 0 152.5 42t84.5 116h-194v246h520v-125q0 -259 -155 -413t-408 -154q-274 0 -448.5 181t-174.5 468z" />
<glyph unicode="H" horiz-adv-x="1331" d="M94 0v1257h330v-477h485v477h330v-1257h-330v498h-485v-498h-330z" />
<glyph unicode="I" horiz-adv-x="518" d="M94 0v1257h330v-1257h-330z" />
<glyph unicode="J" horiz-adv-x="1107" d="M31 444h334q5 -82 46.5 -126t116.5 -44q89 0 129.5 52.5t40.5 158.5v772h330v-774q0 -169 -65.5 -284t-175.5 -167t-257 -52q-226 0 -358 127t-141 337z" />
<glyph unicode="K" horiz-adv-x="1245" d="M94 0v1257h330v-516l405 516h385l-440 -552l459 -705h-387l-318 483l-104 -133v-350h-330z" />
<glyph unicode="L" horiz-adv-x="1044" d="M94 0v1257h330v-972h563v-285h-893z" />
<glyph unicode="M" horiz-adv-x="1540" d="M94 0v1257h402l276 -782l275 782h399v-1257h-309v748l-260 -748h-213l-263 748v-748h-307z" />
<glyph unicode="N" horiz-adv-x="1298" d="M94 0v1257h307l486 -692v692h317v-1257h-266l-526 735v-735h-318z" />
<glyph unicode="O" horiz-adv-x="1316" d="M45 629q0 284 171 466.5t441 182.5q180 0 321 -83.5t218.5 -231t77.5 -334.5q0 -186 -77.5 -334t-218.5 -231.5t-321 -83.5q-178 0 -318 83.5t-217 231.5t-77 334zM377 629q0 -163 76.5 -262t203.5 -99q128 0 206.5 99.5t78.5 261.5t-78.5 261t-206.5 99 q-127 0 -203.5 -98.5t-76.5 -261.5z" />
<glyph unicode="P" horiz-adv-x="1148" d="M94 0v1257h551q208 0 332.5 -113.5t124.5 -320.5q0 -205 -124.5 -318.5t-332.5 -113.5h-225v-391h-326zM420 666h190q86 0 129 42t43 115q0 75 -42.5 116.5t-129.5 41.5h-190v-315z" />
<glyph unicode="Q" horiz-adv-x="1316" d="M45 629q0 284 171 466.5t441 182.5q180 0 321 -83.5t218.5 -231t77.5 -334.5q0 -262 -166 -449l92 -112l-199 -160l-100 123q-114 -51 -244 -51q-178 0 -318 83.5t-217 231.5t-77 334zM377 629q0 -165 77 -270t203 -105q33 0 60 6l-101 125l199 156l94 -117q33 91 33 205 q0 162 -78.5 261t-206.5 99q-127 0 -203.5 -98.5t-76.5 -261.5z" />
<glyph unicode="R" horiz-adv-x="1175" d="M94 0v1257h565q207 0 332 -113t125 -315q0 -140 -66 -237t-184 -141l295 -451h-364l-262 416h-115v-416h-326zM420 678h205q85 0 127.5 40t42.5 111t-42.5 111.5t-127.5 40.5h-205v-303z" />
<glyph unicode="S" horiz-adv-x="1114" d="M25 373h342q41 -129 202 -129q77 0 123.5 32t46.5 89q0 43 -28 66.5t-90 37.5l-242 51q-324 72 -324 350q0 183 136 295.5t348 112.5q221 0 354.5 -107t161.5 -278h-322q-47 123 -192 123q-72 0 -115 -29.5t-43 -81.5q0 -78 104 -100l246 -57q334 -79 334 -363 q0 -125 -66.5 -218.5t-177 -140t-248.5 -46.5q-226 0 -371 103.5t-179 289.5z" />
<glyph unicode="T" horiz-adv-x="1187" d="M41 975v282h1106v-282h-389v-975h-330v975h-387z" />
<glyph unicode="U" horiz-adv-x="1255" d="M80 514v743h328v-714q0 -132 58.5 -201.5t162.5 -69.5q103 0 161 69.5t58 201.5v714h328v-745q0 -254 -147 -393t-400 -139t-401 139.5t-148 394.5z" />
<glyph unicode="V" horiz-adv-x="1288" d="M14 1257h353l284 -813l285 813h338l-469 -1257h-322z" />
<glyph unicode="W" horiz-adv-x="1679" d="M12 1257h336l176 -739l195 739h250l192 -739l174 739h332l-332 -1257h-301l-194 737l-197 -737h-301z" />
<glyph unicode="X" horiz-adv-x="1236" d="M6 0l424 643l-403 614h366l228 -358l233 358h356l-403 -614l424 -643h-367l-250 387l-249 -387h-359z" />
<glyph unicode="Y" horiz-adv-x="1253" d="M12 1257h357l264 -491l264 491h346l-455 -811v-446h-329v446z" />
<glyph unicode="Z" horiz-adv-x="1148" d="M70 0v244l583 731h-577v282h997v-241l-577 -731h583v-285h-1009z" />
<glyph unicode="[" horiz-adv-x="677" d="M94 -172v1503h543v-266h-244v-971h244v-266h-543z" />
<glyph unicode="\" horiz-adv-x="806" d="M10 1331h279l508 -1503h-279z" />
<glyph unicode="]" horiz-adv-x="677" d="M41 94h244v971h-244v266h543v-1503h-543v266z" />
<glyph unicode="^" horiz-adv-x="884" d="M20 770l291 487h262l291 -487h-274l-148 256l-145 -256h-277z" />
<glyph unicode="_" horiz-adv-x="780" d="M41 -86h698v-244h-698v244z" />
<glyph unicode="`" horiz-adv-x="1024" d="M274 1331h306l168 -307h-295z" />
<glyph unicode="a" d="M41 281q0 131 100.5 211.5t253.5 80.5q56 0 115.5 -15t87.5 -36v60q0 47 -28.5 78.5t-84.5 31.5q-85 0 -108 -67h-303q21 138 135 228.5t287 90.5q196 0 303.5 -99.5t107.5 -279.5v-565h-309v47q-25 -25 -88 -44t-133 -19q-144 0 -240 78.5t-96 218.5zM336 287 q0 -44 37.5 -67t89.5 -23q45 0 82.5 17t52.5 44v53q-15 29 -52.5 46.5t-82.5 17.5q-52 0 -89.5 -22.5t-37.5 -65.5z" />
<glyph unicode="b" horiz-adv-x="1083" d="M86 0v1331h322v-483q34 39 97 66.5t130 27.5q129 0 224 -65.5t141.5 -173t46.5 -242.5t-46.5 -242.5t-141.5 -173t-224 -65.5q-67 0 -130 27.5t-97 66.5v-74h-322zM408 340q19 -39 57 -62.5t84 -23.5q82 0 129 58t47 149q0 92 -47.5 150.5t-128.5 58.5q-45 0 -83.5 -24 t-57.5 -62v-244z" />
<glyph unicode="c" horiz-adv-x="964" d="M37 461q0 214 129 347.5t336 133.5q182 0 294.5 -98.5t133.5 -263.5h-312q-6 43 -37 69.5t-79 26.5q-68 0 -108 -58.5t-40 -156.5t40 -155.5t108 -57.5q48 0 79 26t37 68h312q-21 -164 -133.5 -263t-294.5 -99q-207 0 -336 133.5t-129 347.5z" />
<glyph unicode="d" horiz-adv-x="1083" d="M37 461q0 135 46.5 242.5t141.5 173t224 65.5q67 0 130 -27.5t97 -66.5v483h321v-1331h-321v74q-34 -39 -97 -66.5t-130 -27.5q-129 0 -224 65.5t-141.5 173t-46.5 242.5zM358 461q0 -91 47.5 -149t129.5 -58q46 0 84 23.5t57 62.5v244q-19 38 -57.5 62t-83.5 24 q-81 0 -129 -59t-48 -150z" />
<glyph unicode="e" d="M37 461q0 212 131 346.5t332 134.5q208 0 325 -126.5t117 -336.5v-80h-596q7 -83 49 -126.5t111 -43.5q108 0 135 93h297q-25 -160 -139 -251t-293 -91q-212 0 -340.5 132.5t-128.5 348.5zM352 559h279q-3 59 -38 96t-93 37q-57 0 -95 -34t-53 -99z" />
<glyph unicode="f" horiz-adv-x="692" d="M27 672v250h137v67q0 167 95 264t263 97q80 0 150 -25v-262q-34 18 -76 18q-55 0 -85 -27.5t-30 -82.5v-49h178v-250h-178v-672h-317v672h-137z" />
<glyph unicode="g" horiz-adv-x="1067" d="M37 492q0 195 109.5 322.5t297.5 127.5q73 0 130 -25t90 -65v70h317v-789q0 -235 -130 -357t-349 -122q-187 0 -309 88t-146 246h309q27 -99 146 -99q162 0 162 174v66q-34 -39 -91 -64.5t-129 -25.5q-188 0 -297.5 128t-109.5 325zM354 492q0 -89 45.5 -143t124.5 -54 q45 0 82.5 22t57.5 56v237q-20 33 -57.5 55.5t-82.5 22.5q-78 0 -124 -54t-46 -142z" />
<glyph unicode="h" horiz-adv-x="1062" d="M86 0v1331h322v-489q40 45 105 72.5t142 27.5q152 0 239 -91.5t87 -246.5v-604h-319v526q0 59 -31 95t-90 36q-48 0 -84.5 -27t-48.5 -73v-557h-322z" />
<glyph unicode="i" horiz-adv-x="495" d="M66 1171q0 77 53 126t129 49t129 -49t53 -126q0 -76 -53 -124t-129 -48t-129 48t-53 124zM86 0v922h322v-922h-322z" />
<glyph unicode="j" horiz-adv-x="493" d="M-59 -90q24 -4 47 -4q51 0 74.5 23t23.5 79v914h322v-902q0 -175 -90.5 -270.5t-260.5 -95.5q-75 0 -116 14v242zM66 1171q0 77 53 126t129 49t129 -49t53 -126q0 -76 -53 -124t-129 -48t-129 48t-53 124z" />
<glyph unicode="k" horiz-adv-x="1071" d="M86 0v1331h322v-704l258 295h387l-351 -383l361 -539h-369l-225 342l-61 -72v-270h-322z" />
<glyph unicode="l" horiz-adv-x="495" d="M86 0v1331h322v-1331h-322z" />
<glyph unicode="m" horiz-adv-x="1574" d="M86 0v922h322v-76q36 44 99 70t138 26q161 0 254 -111q107 111 285 111q144 0 227.5 -91t83.5 -247v-604h-321v526q0 61 -26.5 97t-78.5 36q-42 0 -74.5 -26t-44.5 -72v-561h-319v526q0 61 -26.5 97t-78.5 36q-43 0 -75.5 -26t-42.5 -72v-561h-322z" />
<glyph unicode="n" horiz-adv-x="1062" d="M86 0v922h322v-80q40 45 105 72.5t142 27.5q152 0 239 -91.5t87 -246.5v-604h-319v526q0 59 -31 95t-90 36q-48 0 -84.5 -27t-48.5 -73v-557h-322z" />
<glyph unicode="o" horiz-adv-x="1017" d="M37 461q0 214 131 347.5t340 133.5q210 0 340.5 -133.5t130.5 -347.5t-130.5 -347.5t-340.5 -133.5q-209 0 -340 133.5t-131 347.5zM354 461q0 -97 41 -156t113 -59q74 0 115 59t41 156t-41.5 157t-114.5 60q-72 0 -113 -60t-41 -157z" />
<glyph unicode="p" horiz-adv-x="1083" d="M86 -326v1248h322v-74q34 39 97 66.5t130 27.5q129 0 224 -66t141.5 -173.5t46.5 -241.5q0 -205 -110 -343t-302 -138q-67 0 -130 27.5t-97 66.5v-400h-322zM408 340q19 -39 57.5 -62.5t83.5 -23.5q82 0 129 58t47 149q0 92 -47.5 150.5t-128.5 58.5q-46 0 -84 -24 t-57 -62v-244z" />
<glyph unicode="q" horiz-adv-x="1083" d="M37 461q0 134 46.5 241.5t141.5 173.5t224 66q67 0 130 -27.5t97 -66.5v74h321v-1248h-321v400q-34 -39 -97 -66.5t-130 -27.5q-192 0 -302 138t-110 343zM358 461q0 -91 47.5 -149t129.5 -58q45 0 83.5 23.5t57.5 62.5v244q-19 38 -57 62t-84 24q-81 0 -129 -59 t-48 -150z" />
<glyph unicode="r" horiz-adv-x="747" d="M86 0v922h322v-82q75 102 208 102q61 0 89 -16v-310q-57 29 -134 29q-66 0 -108.5 -27t-54.5 -77v-541h-322z" />
<glyph unicode="s" horiz-adv-x="917" d="M33 285h313q10 -38 42 -59t75 -21q42 0 68 16t26 47q0 25 -17.5 37.5t-54.5 20.5l-180 36q-123 26 -188.5 89.5t-65.5 179.5q0 143 112 227t281 84q184 0 290 -79t128 -220h-297q-19 74 -112 74q-37 0 -61.5 -16t-24.5 -46q0 -21 15 -33t48 -18l182 -43q258 -60 258 -276 q0 -143 -114 -224t-289 -81q-180 0 -296.5 79t-137.5 226z" />
<glyph unicode="t" horiz-adv-x="733" d="M18 672v250h136v254h317v-254h193v-250h-193v-307q0 -103 98 -103q52 0 103 21v-273q-65 -28 -178 -28q-340 0 -340 335v355h-136z" />
<glyph unicode="u" horiz-adv-x="1058" d="M82 317v605h319v-529q0 -61 30 -97t89 -36q45 0 82 28t49 74v560h322v-922h-322v80q-38 -44 -103.5 -72t-141.5 -28q-151 0 -237.5 91t-86.5 246z" />
<glyph unicode="v" horiz-adv-x="1017" d="M14 922h328l176 -529l172 529h316l-353 -922h-288z" />
<glyph unicode="w" horiz-adv-x="1429" d="M14 922h320l145 -500l139 500h205l138 -500l147 500h307l-297 -922h-272l-131 467l-131 -467h-273z" />
<glyph unicode="x" horiz-adv-x="1011" d="M8 0l322 469l-307 453h346l143 -222l145 222h332l-309 -451l324 -471h-349l-157 240l-158 -240h-332z" />
<glyph unicode="y" horiz-adv-x="1028" d="M14 922h334l176 -525l172 525h320l-475 -1248h-318l135 349z" />
<glyph unicode="z" horiz-adv-x="933" d="M63 0v211l406 461h-393v250h786v-209l-389 -461h395v-252h-805z" />
<glyph unicode="{" horiz-adv-x="749" d="M41 446v267h90q59 0 59 59v293q0 118 74 192t191 74h254v-266h-168q-60 0 -60 -59v-256q0 -110 -96 -170q96 -60 96 -170v-256q0 -60 60 -60h168v-266h-254q-117 0 -191 74t-74 192v293q0 59 -59 59h-90z" />
<glyph unicode="|" horiz-adv-x="456" d="M94 -172v1503h268v-1503h-268z" />
<glyph unicode="}" horiz-adv-x="749" d="M41 94h168q59 0 59 60v256q0 110 97 170q-97 60 -97 170v256q0 59 -59 59h-168v266h254q117 0 190.5 -74t73.5 -192v-293q0 -59 59 -59h91v-267h-91q-59 0 -59 -59v-293q0 -118 -73.5 -192t-190.5 -74h-254v266z" />
<glyph unicode="~" horiz-adv-x="872" d="M63 403q0 158 59 246t167 88q42 0 81 -18t63 -39t53 -39t53 -18q71 0 71 104h201q0 -158 -59 -246t-166 -88q-43 0 -82 18t-63 39.5t-52.5 39.5t-52.5 18q-72 0 -72 -105h-201z" />
<glyph unicode="&#xa2;" horiz-adv-x="964" d="M37 481q0 178 90.5 302.5t245.5 162.5v197h260v-197q128 -32 204.5 -125t90.5 -227h-310q-5 46 -36 74t-82 28q-66 0 -106 -58.5t-40 -156.5t40 -155.5t106 -57.5q51 0 82 28t36 73h310q-14 -134 -90.5 -228t-204.5 -127v-188h-260v188q-155 40 -245.5 165t-90.5 302z " />
<glyph unicode="&#xa3;" horiz-adv-x="1030" d="M49 0v266h90q41 71 41 187v47h-131v243h131v111q0 187 110 305.5t298 118.5q177 0 282.5 -101t114.5 -268h-287q-3 47 -28.5 75t-71.5 28q-55 0 -84 -40t-29 -108v-121h232v-243h-232v-47q0 -130 -43 -187h539v-266h-932z" />
<glyph unicode="&#xa5;" horiz-adv-x="1173" d="M29 1257h356l209 -438l209 438h342l-301 -569h198v-188h-297v-99h297v-188h-297v-213h-321v213h-295v188h295v99h-295v188h197z" />
<glyph unicode="&#xa8;" horiz-adv-x="1024" d="M172 1161q0 66 46.5 112t111.5 46t111 -46t46 -112q0 -64 -46 -109.5t-111 -45.5t-111.5 45.5t-46.5 109.5zM535 1161q0 66 45 112t110 46t112.5 -46.5t47.5 -111.5q0 -64 -47.5 -109.5t-112.5 -45.5q-64 0 -109.5 45t-45.5 110z" />
<glyph unicode="&#xa9;" horiz-adv-x="1441" d="M72 629q0 184 88 334t236 232.5t325 82.5t325 -82.5t236 -232.5t88 -334t-88 -334t-236 -232.5t-325 -82.5t-325 82.5t-236 232.5t-88 334zM168 629q0 -157 75 -285t201.5 -199t276.5 -71t276.5 71t201.5 199t75 285t-75 285t-201.5 199t-276.5 71t-276.5 -71 t-201.5 -199t-75 -285zM338 631q0 181 108.5 295t280.5 114q149 0 239 -78t111 -206h-233q-25 80 -117 80q-75 0 -116.5 -56.5t-41.5 -148.5q0 -89 42 -146t116 -57q92 0 117 82h233q-21 -128 -111.5 -207.5t-238.5 -79.5q-172 0 -280.5 114t-108.5 294z" />
<glyph unicode="&#xab;" horiz-adv-x="923" d="M51 455l189 336h262l-189 -336l189 -336h-262zM422 455l188 336h262l-188 -336l188 -336h-262z" />
<glyph unicode="&#xad;" horiz-adv-x="638" d="M74 401v271h493v-271h-493z" />
<glyph unicode="&#xae;" horiz-adv-x="833" d="M45 903q0 161 108.5 268t262.5 107t262 -107t108 -268t-108 -268t-262 -107t-262.5 107t-108.5 268zM113 903q0 -135 87.5 -223t215.5 -88t215.5 88t87.5 223t-87.5 223t-215.5 88t-215.5 -88t-87.5 -223zM258 709v393h191q67 0 107 -37t40 -104q0 -86 -74 -119l86 -133 h-133l-72 118h-24v-118h-121zM379 924h51q47 0 47 37q0 40 -47 40h-51v-77z" />
<glyph unicode="&#xb4;" horiz-adv-x="1024" d="M274 1024l168 307h306l-179 -307h-295z" />
<glyph unicode="&#xb8;" horiz-adv-x="1024" d="M289 -371l141 289h275l-144 -289h-272z" />
<glyph unicode="&#xbb;" horiz-adv-x="923" d="M51 119l189 336l-189 336h262l189 -336l-189 -336h-262zM422 119l188 336l-188 336h262l188 -336l-188 -336h-262z" />
<glyph unicode="&#xc0;" horiz-adv-x="1323" d="M14 0l480 1257h335l480 -1257h-334l-90 244h-457l-88 -244h-326zM334 1630h330l167 -266h-315zM528 514h258l-129 354z" />
<glyph unicode="&#xc2;" horiz-adv-x="1323" d="M14 0l480 1257h335l480 -1257h-334l-90 244h-457l-88 -244h-326zM317 1364l222 270h245l222 -270h-258l-86 92l-87 -92h-258zM528 514h258l-129 354z" />
<glyph unicode="&#xc4;" horiz-adv-x="1323" d="M14 0l480 1257h335l480 -1257h-334l-90 244h-457l-88 -244h-326zM315 1503q0 68 46.5 115t113.5 47q66 0 114 -47.5t48 -114.5t-48 -114.5t-114 -47.5q-67 0 -113.5 47t-46.5 115zM528 514h258l-129 354zM686 1503q0 67 47 114.5t113 47.5t114 -47.5t48 -114.5 t-48 -114.5t-114 -47.5t-113 47.5t-47 114.5z" />
<glyph unicode="&#xc6;" horiz-adv-x="1839" d="M14 0l707 1257h1048v-282h-534v-197h483v-276h-483v-217h534v-285h-858v244h-413l-136 -244h-348zM647 514h264v477z" />
<glyph unicode="&#xc7;" horiz-adv-x="1234" d="M45 629q0 285 170 467t434 182q227 0 367.5 -121t175.5 -321h-328q-55 153 -215 153q-127 0 -199.5 -100t-72.5 -260q0 -159 72.5 -260t199.5 -101q160 0 215 156h328q-35 -201 -175.5 -322.5t-367.5 -121.5q-264 0 -434 182t-170 467zM379 -371l141 289h275l-144 -289 h-272z" />
<glyph unicode="&#xc8;" horiz-adv-x="1062" d="M94 0v1257h899v-282h-575v-197h526v-276h-526v-217h575v-285h-899zM227 1630h330l168 -266h-315z" />
<glyph unicode="&#xc9;" horiz-adv-x="1062" d="M94 0v1257h899v-282h-575v-197h526v-276h-526v-217h575v-285h-899zM389 1364l168 266h330l-182 -266h-316z" />
<glyph unicode="&#xca;" horiz-adv-x="1062" d="M94 0v1257h899v-282h-575v-197h526v-276h-526v-217h575v-285h-899zM211 1364l221 270h246l221 -270h-258l-86 92l-86 -92h-258z" />
<glyph unicode="&#xcb;" horiz-adv-x="1062" d="M94 0v1257h899v-282h-575v-197h526v-276h-526v-217h575v-285h-899zM209 1503q0 68 46.5 115t113.5 47q66 0 113.5 -47.5t47.5 -114.5t-47.5 -114.5t-113.5 -47.5q-67 0 -113.5 47t-46.5 115zM580 1503q0 67 46.5 114.5t112.5 47.5t114 -47.5t48 -114.5t-48 -114.5 t-114 -47.5t-112.5 47.5t-46.5 114.5z" />
<glyph unicode="&#xce;" horiz-adv-x="518" d="M-86 1364l221 270h246l221 -270h-258l-86 92l-86 -92h-258zM94 0v1257h330v-1257h-330z" />
<glyph unicode="&#xcf;" horiz-adv-x="518" d="M-86 1503q0 68 46.5 115t113.5 47q66 0 114 -47.5t48 -114.5t-48 -114.5t-114 -47.5q-67 0 -113.5 47t-46.5 115zM94 0v1257h330v-1257h-330zM285 1503q0 67 46.5 114.5t112.5 47.5t114 -47.5t48 -114.5t-48 -114.5t-114 -47.5t-112.5 47.5t-46.5 114.5z" />
<glyph unicode="&#xd3;" horiz-adv-x="1316" d="M45 629q0 284 171 466.5t441 182.5q180 0 321 -83.5t218.5 -231t77.5 -334.5q0 -186 -77.5 -334t-218.5 -231.5t-321 -83.5q-178 0 -318 83.5t-217 231.5t-77 334zM377 629q0 -163 76.5 -262t203.5 -99q128 0 206.5 99.5t78.5 261.5t-78.5 261t-206.5 99 q-127 0 -203.5 -98.5t-76.5 -261.5zM492 1364l167 266h330l-182 -266h-315z" />
<glyph unicode="&#xd4;" horiz-adv-x="1316" d="M45 629q0 284 171 466.5t441 182.5q180 0 321 -83.5t218.5 -231t77.5 -334.5q0 -186 -77.5 -334t-218.5 -231.5t-321 -83.5q-178 0 -318 83.5t-217 231.5t-77 334zM313 1364l222 270h245l221 -270h-258l-86 92l-86 -92h-258zM377 629q0 -163 76.5 -262t203.5 -99 q128 0 206.5 99.5t78.5 261.5t-78.5 261t-206.5 99q-127 0 -203.5 -98.5t-76.5 -261.5z" />
<glyph unicode="&#xd6;" horiz-adv-x="1316" d="M45 629q0 284 171 466.5t441 182.5q180 0 321 -83.5t218.5 -231t77.5 -334.5q0 -186 -77.5 -334t-218.5 -231.5t-321 -83.5q-178 0 -318 83.5t-217 231.5t-77 334zM313 1503q0 68 46.5 115t113.5 47q66 0 114 -47.5t48 -114.5t-48 -114.5t-114 -47.5q-67 0 -113.5 47 t-46.5 115zM377 629q0 -163 76.5 -262t203.5 -99q128 0 206.5 99.5t78.5 261.5t-78.5 261t-206.5 99q-127 0 -203.5 -98.5t-76.5 -261.5zM684 1503q0 67 47 114.5t113 47.5t114 -47.5t48 -114.5t-48 -114.5t-114 -47.5t-113 47.5t-47 114.5z" />
<glyph unicode="&#xd9;" horiz-adv-x="1255" d="M80 514v743h328v-714q0 -132 58.5 -201.5t162.5 -69.5q103 0 161 69.5t58 201.5v714h328v-745q0 -254 -147 -393t-400 -139t-401 139.5t-148 394.5zM301 1630h330l168 -266h-316z" />
<glyph unicode="&#xdb;" horiz-adv-x="1255" d="M80 514v743h328v-714q0 -132 58.5 -201.5t162.5 -69.5q103 0 161 69.5t58 201.5v714h328v-745q0 -254 -147 -393t-400 -139t-401 139.5t-148 394.5zM285 1364l221 270h246l221 -270h-258l-86 92l-86 -92h-258z" />
<glyph unicode="&#xdc;" horiz-adv-x="1255" d="M80 514v743h328v-714q0 -132 58.5 -201.5t162.5 -69.5q103 0 161 69.5t58 201.5v714h328v-745q0 -254 -147 -393t-400 -139t-401 139.5t-148 394.5zM283 1503q0 68 46 115t113 47q66 0 114 -47.5t48 -114.5t-48 -114.5t-114 -47.5q-67 0 -113 47t-46 115zM653 1503 q0 67 47 114.5t113 47.5t114 -47.5t48 -114.5t-48 -114.5t-114 -47.5t-113 47.5t-47 114.5z" />
<glyph unicode="&#xdf;" horiz-adv-x="1112" d="M86 0v885q0 215 124 340t337 125q207 0 320.5 -100t113.5 -259q0 -93 -38 -162.5t-95 -101.5q99 -36 162 -125.5t63 -216.5q0 -185 -112 -290t-293 -105q-97 0 -162 22v254q40 -14 100 -14q76 0 119 42.5t43 119.5t-52 118t-143 41h-59v250h35q61 0 96 33t35 96 q0 57 -35 91t-98 34q-68 0 -104.5 -47.5t-36.5 -124.5v-905h-320z" />
<glyph unicode="&#xe0;" d="M41 281q0 131 100.5 211.5t253.5 80.5q56 0 115.5 -15t87.5 -36v60q0 47 -28.5 78.5t-84.5 31.5q-85 0 -108 -67h-303q21 138 135 228.5t287 90.5q196 0 303.5 -99.5t107.5 -279.5v-565h-309v47q-25 -25 -88 -44t-133 -19q-144 0 -240 78.5t-96 218.5zM195 1331h305 l168 -307h-295zM336 287q0 -44 37.5 -67t89.5 -23q45 0 82.5 17t52.5 44v53q-15 29 -52.5 46.5t-82.5 17.5q-52 0 -89.5 -22.5t-37.5 -65.5z" />
<glyph unicode="&#xe2;" d="M41 281q0 131 100.5 211.5t253.5 80.5q56 0 115.5 -15t87.5 -36v60q0 47 -28.5 78.5t-84.5 31.5q-85 0 -108 -67h-303q21 138 135 228.5t287 90.5q196 0 303.5 -99.5t107.5 -279.5v-565h-309v47q-25 -25 -88 -44t-133 -19q-144 0 -240 78.5t-96 218.5zM186 1020l197 309 h246l196 -309h-237l-82 113l-82 -113h-238zM336 287q0 -44 37.5 -67t89.5 -23q45 0 82.5 17t52.5 44v53q-15 29 -52.5 46.5t-82.5 17.5q-52 0 -89.5 -22.5t-37.5 -65.5z" />
<glyph unicode="&#xe4;" d="M41 281q0 131 100.5 211.5t253.5 80.5q56 0 115.5 -15t87.5 -36v60q0 47 -28.5 78.5t-84.5 31.5q-85 0 -108 -67h-303q21 138 135 228.5t287 90.5q196 0 303.5 -99.5t107.5 -279.5v-565h-309v47q-25 -25 -88 -44t-133 -19q-144 0 -240 78.5t-96 218.5zM172 1161 q0 66 46.5 112t111.5 46t111 -46t46 -112q0 -64 -46 -109.5t-111 -45.5t-111.5 45.5t-46.5 109.5zM336 287q0 -44 37.5 -67t89.5 -23q45 0 82.5 17t52.5 44v53q-15 29 -52.5 46.5t-82.5 17.5q-52 0 -89.5 -22.5t-37.5 -65.5zM535 1161q0 66 45 112t110 46t112.5 -46.5 t47.5 -111.5q0 -64 -47.5 -109.5t-112.5 -45.5q-64 0 -109.5 45t-45.5 110z" />
<glyph unicode="&#xe6;" horiz-adv-x="1499" d="M39 266q0 139 110 216t279 77h162v27q0 49 -30 80.5t-89 31.5q-92 0 -115 -73h-282q19 139 127.5 228t275.5 89q172 0 275 -100q119 100 272 100q203 0 320.5 -127.5t117.5 -335.5v-90h-596q15 -160 160 -160q104 0 131 84h301q-29 -156 -144.5 -244.5t-293.5 -88.5 q-180 0 -311 114q-136 -112 -330 -112q-141 0 -240.5 77t-99.5 207zM334 297q0 -44 34.5 -67t84.5 -23q97 0 137 76v104h-131q-54 0 -89.5 -23t-35.5 -67zM872 559h279q-5 59 -39 96t-92 37q-57 0 -95 -34t-53 -99z" />
<glyph unicode="&#xe7;" horiz-adv-x="964" d="M37 461q0 214 129 347.5t336 133.5q182 0 294.5 -98.5t133.5 -263.5h-312q-6 43 -37 69.5t-79 26.5q-68 0 -108 -58.5t-40 -156.5t40 -155.5t108 -57.5q48 0 79 26t37 68h312q-21 -164 -133.5 -263t-294.5 -99q-207 0 -336 133.5t-129 347.5zM225 -371l142 289h274 l-143 -289h-273z" />
<glyph unicode="&#xe8;" d="M37 461q0 212 131 346.5t332 134.5q208 0 325 -126.5t117 -336.5v-80h-596q7 -83 49 -126.5t111 -43.5q108 0 135 93h297q-25 -160 -139 -251t-293 -91q-212 0 -340.5 132.5t-128.5 348.5zM193 1331h305l168 -307h-295zM352 559h279q-3 59 -38 96t-93 37q-57 0 -95 -34 t-53 -99z" />
<glyph unicode="&#xe9;" d="M37 461q0 212 131 346.5t332 134.5q208 0 325 -126.5t117 -336.5v-80h-596q7 -83 49 -126.5t111 -43.5q108 0 135 93h297q-25 -160 -139 -251t-293 -91q-212 0 -340.5 132.5t-128.5 348.5zM352 559h279q-3 59 -38 96t-93 37q-57 0 -95 -34t-53 -99zM352 1024l168 307h305 l-178 -307h-295z" />
<glyph unicode="&#xea;" d="M37 461q0 212 131 346.5t332 134.5q208 0 325 -126.5t117 -336.5v-80h-596q7 -83 49 -126.5t111 -43.5q108 0 135 93h297q-25 -160 -139 -251t-293 -91q-212 0 -340.5 132.5t-128.5 348.5zM190 1020l197 309h246l196 -309h-237l-82 113l-82 -113h-238zM352 559h279 q-3 59 -38 96t-93 37q-57 0 -95 -34t-53 -99z" />
<glyph unicode="&#xeb;" d="M37 461q0 212 131 346.5t332 134.5q208 0 325 -126.5t117 -336.5v-80h-596q7 -83 49 -126.5t111 -43.5q108 0 135 93h297q-25 -160 -139 -251t-293 -91q-212 0 -340.5 132.5t-128.5 348.5zM172 1161q0 66 46.5 112t111.5 46t111 -46t46 -112q0 -64 -46 -109.5t-111 -45.5 t-111.5 45.5t-46.5 109.5zM352 559h279q-3 59 -38 96t-93 37q-57 0 -95 -34t-53 -99zM535 1161q0 66 45 112t110 46t112.5 -46.5t47.5 -111.5q0 -64 -47.5 -109.5t-112.5 -45.5q-64 0 -109.5 45t-45.5 110z" />
<glyph unicode="&#xee;" horiz-adv-x="495" d="M-37 1020l162 309h246l161 -309h-229l-55 123l-58 -123h-227zM86 0v922h322v-922h-322z" />
<glyph unicode="&#xef;" horiz-adv-x="495" d="M-84 1161q0 66 45.5 112t110.5 46q66 0 111.5 -46t45.5 -112q0 -65 -45.5 -110t-111.5 -45q-65 0 -110.5 45.5t-45.5 109.5zM86 0v922h322v-922h-322zM266 1161q0 66 46.5 112t111.5 46t111.5 -46t46.5 -112q0 -64 -46.5 -109.5t-111.5 -45.5t-111.5 45.5t-46.5 109.5z " />
<glyph unicode="&#xf3;" horiz-adv-x="1017" d="M37 461q0 214 131 347.5t340 133.5q210 0 340.5 -133.5t130.5 -347.5t-130.5 -347.5t-340.5 -133.5q-209 0 -340 133.5t-131 347.5zM352 1024l168 307h305l-178 -307h-295zM354 461q0 -97 41 -156t113 -59q74 0 115 59t41 156t-41.5 157t-114.5 60q-72 0 -113 -60 t-41 -157z" />
<glyph unicode="&#xf4;" horiz-adv-x="1017" d="M37 461q0 214 131 347.5t340 133.5q210 0 340.5 -133.5t130.5 -347.5t-130.5 -347.5t-340.5 -133.5q-209 0 -340 133.5t-131 347.5zM188 1020l197 309h246l196 -309h-237l-82 113l-82 -113h-238zM354 461q0 -97 41 -156t113 -59q74 0 115 59t41 156t-41.5 157t-114.5 60 q-72 0 -113 -60t-41 -157z" />
<glyph unicode="&#xf6;" horiz-adv-x="1017" d="M37 461q0 214 131 347.5t340 133.5q210 0 340.5 -133.5t130.5 -347.5t-130.5 -347.5t-340.5 -133.5q-209 0 -340 133.5t-131 347.5zM170 1161q0 66 46.5 112t111.5 46t111 -46t46 -112q0 -64 -46 -109.5t-111 -45.5t-111.5 45.5t-46.5 109.5zM354 461q0 -97 41 -156 t113 -59q74 0 115 59t41 156t-41.5 157t-114.5 60q-72 0 -113 -60t-41 -157zM532 1161q0 66 45.5 112t110.5 46t112.5 -46.5t47.5 -111.5q0 -64 -47.5 -109.5t-112.5 -45.5t-110.5 45.5t-45.5 109.5z" />
<glyph unicode="&#xf9;" horiz-adv-x="1058" d="M82 317v605h319v-529q0 -61 30 -97t89 -36q45 0 82 28t49 74v560h322v-922h-322v80q-38 -44 -103.5 -72t-141.5 -28q-151 0 -237.5 91t-86.5 246zM211 1331h305l168 -307h-295z" />
<glyph unicode="&#xfb;" horiz-adv-x="1058" d="M82 317v605h319v-529q0 -61 30 -97t89 -36q45 0 82 28t49 74v560h322v-922h-322v80q-38 -44 -103.5 -72t-141.5 -28q-151 0 -237.5 91t-86.5 246zM209 1020l197 309h245l197 -309h-238l-82 113l-82 -113h-237z" />
<glyph unicode="&#xfc;" horiz-adv-x="1058" d="M82 317v605h319v-529q0 -61 30 -97t89 -36q45 0 82 28t49 74v560h322v-922h-322v80q-38 -44 -103.5 -72t-141.5 -28q-151 0 -237.5 91t-86.5 246zM190 1161q0 66 46.5 112t111.5 46t111.5 -46t46.5 -112q0 -64 -46.5 -109.5t-111.5 -45.5t-111.5 45.5t-46.5 109.5z M553 1161q0 66 45.5 112t110.5 46t112 -46t47 -112q0 -64 -47 -109.5t-112 -45.5t-110.5 45.5t-45.5 109.5z" />
<glyph unicode="&#xff;" horiz-adv-x="1028" d="M14 922h334l176 -525l172 525h320l-475 -1248h-318l135 349zM186 1161q0 66 46.5 112t111.5 46t111.5 -46t46.5 -112q0 -64 -46.5 -109.5t-111.5 -45.5t-111.5 45.5t-46.5 109.5zM549 1161q0 66 45.5 112t110.5 46t112 -46t47 -112q0 -64 -47 -109.5t-112 -45.5 t-110.5 45.5t-45.5 109.5z" />
<glyph unicode="&#x104;" horiz-adv-x="1323" d="M14 0l480 1257h335l480 -1257q-14 -17 -32 -38t-26.5 -30.5t-19 -22.5t-14.5 -19.5t-8.5 -15t-5.5 -14.5t-1 -14q0 -17 11 -28t30 -11q21 0 72 31v-178q-63 -39 -133 -39q-84 0 -136.5 42.5t-52.5 119.5q0 54 27.5 101.5t85.5 115.5h-131l-90 244h-457l-88 -244h-326z M528 514h258l-129 354z" />
<glyph unicode="&#x105;" d="M41 281q0 131 100.5 211.5t253.5 80.5q56 0 115.5 -15t87.5 -36v60q0 47 -28.5 78.5t-84.5 31.5q-87 0 -110 -67h-301q21 138 135 228.5t287 90.5q196 0 303.5 -99.5t107.5 -279.5v-565q-10 -12 -27 -32q-50 -59 -63.5 -79.5t-13.5 -42.5q0 -18 10.5 -28.5t28.5 -10.5 q6 0 12 1t10 2.5t11 5t10.5 5.5t13 8t14.5 9v-178q-59 -39 -133 -39q-84 0 -136 42.5t-52 119.5q0 38 18 78t36.5 65.5t58.5 73.5h-107v47q-25 -25 -88 -44t-133 -19q-144 0 -240 78.5t-96 218.5zM336 287q0 -44 37.5 -67t89.5 -23q45 0 82.5 17t52.5 44v53 q-15 29 -52.5 46.5t-82.5 17.5q-52 0 -89.5 -22.5t-37.5 -65.5z" />
<glyph unicode="&#x106;" horiz-adv-x="1234" d="M45 629q0 285 170 467t434 182q227 0 367.5 -121t175.5 -321h-328q-55 153 -215 153q-127 0 -199.5 -100t-72.5 -260q0 -159 72.5 -260t199.5 -101q160 0 215 156h328q-35 -201 -175.5 -322.5t-367.5 -121.5q-264 0 -434 182t-170 467zM500 1364l168 266h329l-182 -266 h-315z" />
<glyph unicode="&#x107;" horiz-adv-x="964" d="M37 461q0 214 129 347.5t336 133.5q182 0 294.5 -98.5t133.5 -263.5h-312q-6 43 -37 69.5t-79 26.5q-68 0 -108 -58.5t-40 -156.5t40 -155.5t108 -57.5q48 0 79 26t37 68h312q-21 -164 -133.5 -263t-294.5 -99q-207 0 -336 133.5t-129 347.5zM348 1024l168 307h305 l-178 -307h-295z" />
<glyph unicode="&#x118;" horiz-adv-x="1062" d="M94 0v1257h899v-282h-575v-197h526v-276h-526v-217h575v-285h-71q-83 -99 -94 -120q-9 -18 -9 -34q0 -18 10.5 -28.5t28.5 -10.5q5 0 10 0.5t10 2.5t8.5 3t9.5 4.5t9.5 5.5t12 7t12.5 8v-178q-63 -39 -133 -39q-84 0 -136.5 42.5t-52.5 119.5q0 54 28.5 102.5t86.5 114.5 h-629z" />
<glyph unicode="&#x119;" d="M37 461q0 212 131 346.5t332 134.5q208 0 325 -126.5t117 -336.5v-80h-596q7 -83 49 -126.5t111 -43.5q108 0 135 93h297q-16 -145 -135 -254q-152 -137 -152 -220q0 -41 41 -41q5 0 10 0.5t10 2.5t8.5 3t9.5 4.5t9.5 5.5t12 7t12.5 8v-178q-63 -39 -133 -39 q-84 0 -137.5 43.5t-53.5 120.5q0 50 25 96t74 101q-8 -2 -33 -2q-212 0 -340.5 132.5t-128.5 348.5zM352 559h279q-3 59 -38 96t-93 37q-57 0 -95 -34t-53 -99z" />
<glyph unicode="&#x141;" horiz-adv-x="1073" d="M23 397v254l100 41v565h330v-444l247 100v-256l-247 -98v-274h563v-285h-893v436z" />
<glyph unicode="&#x142;" horiz-adv-x="598" d="M35 422v235l102 60v614h322v-454l106 63v-235l-106 -64v-641h-322v481z" />
<glyph unicode="&#x143;" horiz-adv-x="1298" d="M94 0v1257h307l486 -692v692h317v-1257h-266l-526 735v-735h-318zM483 1364l168 266h330l-182 -266h-316z" />
<glyph unicode="&#x144;" horiz-adv-x="1062" d="M86 0v922h322v-80q40 45 105 72.5t142 27.5q152 0 239 -91.5t87 -246.5v-604h-319v526q0 59 -31 95t-90 36q-48 0 -84.5 -27t-48.5 -73v-557h-322zM391 1024l168 307h305l-178 -307h-295z" />
<glyph unicode="&#x152;" horiz-adv-x="1732" d="M45 629q0 289 169.5 458.5t463.5 169.5h987v-282h-537v-197h486v-276h-486v-217h537v-285h-987q-293 0 -463 170t-170 459zM371 629q0 -160 84 -252t239 -92h111v690h-111q-155 0 -239 -92t-84 -254z" />
<glyph unicode="&#x153;" horiz-adv-x="1585" d="M37 461q0 214 131 347.5t340 133.5q181 0 303 -113q119 113 295 113q208 0 325 -126.5t117 -336.5v-80h-596q7 -83 49 -126.5t111 -43.5q108 0 135 93h297q-25 -160 -139 -251t-293 -91q-181 0 -303 112q-125 -112 -301 -112q-209 0 -340 133.5t-131 347.5zM354 461 q0 -97 41 -156t113 -59q74 0 115 59t41 156t-41.5 157t-114.5 60q-72 0 -113 -60t-41 -157zM958 559h279q-3 59 -38 96t-93 37q-57 0 -95 -34t-53 -99z" />
<glyph unicode="&#x15a;" horiz-adv-x="1114" d="M25 373h342q41 -129 202 -129q77 0 123.5 32t46.5 89q0 43 -28 66.5t-90 37.5l-242 51q-324 72 -324 350q0 183 136 295.5t348 112.5q221 0 354.5 -107t161.5 -278h-322q-47 123 -192 123q-72 0 -115 -29.5t-43 -81.5q0 -78 104 -100l246 -57q334 -79 334 -363 q0 -125 -66.5 -218.5t-177 -140t-248.5 -46.5q-226 0 -371 103.5t-179 289.5zM387 1364l168 266h330l-183 -266h-315z" />
<glyph unicode="&#x15b;" horiz-adv-x="917" d="M33 285h313q10 -38 42 -59t75 -21q42 0 68 16t26 47q0 25 -17.5 37.5t-54.5 20.5l-180 36q-123 26 -188.5 89.5t-65.5 179.5q0 143 112 227t281 84q184 0 290 -79t128 -220h-297q-19 74 -112 74q-37 0 -61.5 -16t-24.5 -46q0 -21 15 -33t48 -18l182 -43q258 -60 258 -276 q0 -143 -114 -224t-289 -81q-180 0 -296.5 79t-137.5 226zM301 1024l168 307h305l-178 -307h-295z" />
<glyph unicode="&#x178;" horiz-adv-x="1253" d="M12 1257h357l264 -491l264 491h346l-455 -811v-446h-329v446zM281 1503q0 68 46 115t113 47q66 0 114 -47.5t48 -114.5t-48 -114.5t-114 -47.5q-67 0 -113 47t-46 115zM651 1503q0 67 47 114.5t113 47.5t114 -47.5t48 -114.5t-48 -114.5t-114 -47.5t-113 47.5t-47 114.5z " />
<glyph unicode="&#x179;" horiz-adv-x="1148" d="M70 0v244l583 731h-577v282h997v-241l-577 -731h583v-285h-1009zM434 1364l168 266h330l-182 -266h-316z" />
<glyph unicode="&#x17a;" horiz-adv-x="933" d="M63 0v211l406 461h-393v250h786v-209l-389 -461h395v-252h-805zM332 1024l168 307h305l-178 -307h-295z" />
<glyph unicode="&#x17b;" horiz-adv-x="1148" d="M70 0v244l583 731h-577v282h997v-241l-577 -731h583v-285h-1009zM418 1522q0 76 53 124t129 48t129 -48t53 -124q0 -77 -53 -125.5t-129 -48.5t-129 48.5t-53 125.5z" />
<glyph unicode="&#x17c;" horiz-adv-x="933" d="M63 0v211l406 461h-393v250h786v-209l-389 -461h395v-252h-805zM307 1186q0 77 53 125.5t129 48.5t129.5 -48.5t53.5 -125.5q0 -76 -53.5 -124t-129.5 -48t-129 48t-53 124z" />
<glyph unicode="&#x2c6;" horiz-adv-x="1024" d="M193 1020l196 309h246l196 -309h-237l-82 113l-82 -113h-237z" />
<glyph unicode="&#x2da;" horiz-adv-x="1024" d="M291 1206q0 91 64 154t157 63t157 -63t64 -154q0 -90 -64 -151.5t-157 -61.5t-157 61.5t-64 151.5zM438 1206q0 -29 21.5 -50t52.5 -21q32 0 53 20.5t21 50.5q0 32 -21 54t-53 22q-31 0 -52.5 -22t-21.5 -54z" />
<glyph unicode="&#x2dc;" horiz-adv-x="1024" d="M207 1024q0 88 16 154t57.5 109.5t106.5 43.5q51 0 113 -37t90 -37q23 0 37 18.5t14 49.5h176q0 -88 -16 -154t-57.5 -109.5t-106.5 -43.5q-51 0 -112 37t-91 37q-24 0 -37.5 -18.5t-13.5 -49.5h-176z" />
<glyph unicode="&#x2000;" horiz-adv-x="847" />
<glyph unicode="&#x2001;" horiz-adv-x="1694" />
<glyph unicode="&#x2002;" horiz-adv-x="847" />
<glyph unicode="&#x2003;" horiz-adv-x="1694" />
<glyph unicode="&#x2004;" horiz-adv-x="564" />
<glyph unicode="&#x2005;" horiz-adv-x="423" />
<glyph unicode="&#x2006;" horiz-adv-x="282" />
<glyph unicode="&#x2007;" horiz-adv-x="282" />
<glyph unicode="&#x2008;" horiz-adv-x="211" />
<glyph unicode="&#x2009;" horiz-adv-x="338" />
<glyph unicode="&#x200a;" horiz-adv-x="94" />
<glyph unicode="&#x2010;" horiz-adv-x="638" d="M74 401v271h493v-271h-493z" />
<glyph unicode="&#x2011;" horiz-adv-x="638" d="M74 401v271h493v-271h-493z" />
<glyph unicode="&#x2012;" horiz-adv-x="638" d="M74 401v271h493v-271h-493z" />
<glyph unicode="&#x2013;" horiz-adv-x="954" d="M74 426v219h809v-219h-809z" />
<glyph unicode="&#x2014;" horiz-adv-x="1714" d="M74 426v219h1568v-219h-1568z" />
<glyph unicode="&#x2018;" horiz-adv-x="454" d="M35 879q0 91 78 211l108 167h203l-150 -233q59 -11 98.5 -55t39.5 -111q0 -77 -54.5 -128.5t-134.5 -51.5t-134 53.5t-54 147.5z" />
<glyph unicode="&#x2019;" horiz-adv-x="454" d="M31 698l149 234q-59 11 -98 55t-39 111q0 78 54 129t134 51t134.5 -53.5t54.5 -147.5q0 -91 -78 -211l-109 -168h-202z" />
<glyph unicode="&#x201a;" horiz-adv-x="454" d="M31 -231l149 233q-59 11 -98 55t-39 111q0 78 54 129t134 51t134.5 -53.5t54.5 -147.5q0 -90 -78 -210l-109 -168h-202z" />
<glyph unicode="&#x201c;" horiz-adv-x="890" d="M35 879q0 91 78 211l108 167h203l-150 -233q59 -11 98.5 -55t39.5 -111q0 -77 -54.5 -128.5t-134.5 -51.5t-134 53.5t-54 147.5zM471 879q0 91 78 211l108 167h203l-149 -233q59 -11 98 -55t39 -111q0 -77 -54.5 -128.5t-134.5 -51.5t-134 53.5t-54 147.5z" />
<glyph unicode="&#x201d;" horiz-adv-x="890" d="M31 698l149 234q-59 11 -98 55t-39 111q0 78 54 129t134 51t134.5 -53.5t54.5 -147.5q0 -91 -78 -211l-109 -168h-202zM467 698l149 234q-59 11 -98 55t-39 111q0 77 54.5 128.5t134.5 51.5t134 -53.5t54 -147.5q0 -91 -78 -211l-108 -168h-203z" />
<glyph unicode="&#x201e;" horiz-adv-x="890" d="M31 -231l149 233q-59 11 -98 55t-39 111q0 78 54 129t134 51t134.5 -53.5t54.5 -147.5q0 -90 -78 -210l-109 -168h-202zM467 -231l149 233q-59 11 -98 55t-39 111q0 77 54.5 128.5t134.5 51.5t134 -53.5t54 -147.5q0 -90 -78 -210l-108 -168h-203z" />
<glyph unicode="&#x2022;" horiz-adv-x="780" d="M49 535q0 150 99 246t243 96q142 0 241 -96t99 -246q0 -145 -99 -240.5t-241 -95.5q-143 0 -242.5 95t-99.5 241z" />
<glyph unicode="&#x2026;" horiz-adv-x="1454" d="M39 178q0 81 54.5 136t133.5 55q80 0 135.5 -55t55.5 -136t-55.5 -136.5t-135.5 -55.5q-78 0 -133 55.5t-55 136.5zM539 178q0 82 54 136.5t134 54.5t134 -54.5t54 -136.5t-54 -137t-134 -55t-134 55t-54 137zM1036 178q0 81 55 136t134 55q80 0 135 -55t55 -136 t-55 -136.5t-135 -55.5q-79 0 -134 55.5t-55 136.5z" />
<glyph unicode="&#x202f;" horiz-adv-x="338" />
<glyph unicode="&#x2039;" horiz-adv-x="569" d="M51 455l189 336h278l-188 -336l188 -336h-278z" />
<glyph unicode="&#x203a;" horiz-adv-x="569" d="M51 119l189 336l-189 336h279l188 -336l-188 -336h-279z" />
<glyph unicode="&#x205f;" horiz-adv-x="423" />
<glyph unicode="&#x20ac;" horiz-adv-x="1163" d="M47 428v158h90v43v47h-90v158h113q48 204 183 324t323 120q190 0 306 -112.5t150 -303.5h-288q-16 59 -58.5 95t-109.5 36q-137 0 -191 -159h275l-31 -158h-270v-47v-43h253l-30 -158h-197q24 -77 72.5 -120.5t118.5 -43.5q67 0 109.5 36t58.5 95h288q-34 -191 -150 -303 t-306 -112q-188 0 -324 121.5t-182 326.5h-113z" />
<glyph unicode="&#x2122;" horiz-adv-x="1249" d="M41 1108v149h481v-149h-157v-371h-168v371h-156zM590 737v520h196l99 -294l98 294h197v-520h-150v289l-96 -289h-100l-97 289v-289h-147z" />
<glyph unicode="&#x25fc;" horiz-adv-x="921" d="M0 0v922h922v-922h-922z" />
</font>
</defs>
</svg>
