<?xml version="1.0" encoding="utf-8"?>
<!-- Generator: Adobe Illustrator 16.0.0, SVG Export Plug-In . SVG Version: 6.00 Build 0)  -->
<!DOCTYPE svg PUBLIC "-//W3C//DTD SVG 1.1//EN" "http://www.w3.org/Graphics/SVG/1.1/DTD/svg11.dtd">
<svg version="1.1" id="Warstwa_1" xmlns="http://www.w3.org/2000/svg" xmlns:xlink="http://www.w3.org/1999/xlink" x="0px" y="0px"
	 width="512px" height="512px" viewBox="0 0 512 512" enable-background="new 0 0 512 512" xml:space="preserve">
<path id="book-9-icon" d="M422.998,88c-305.095,0-255.092,0-273.996,0c-23.611,0-23.611,34.528,0,34.528c8.055,0,4.055,0,68.817,0
	v40.569h-37.291V422h202.469V163.098h-18.613v-40.569c33.229,0,57.262,0,58.613,0V462H139.003c-27.613,0-50-22.386-50-50V100
	c0-27.614,22.387-50,50-50h283.996V88z M250.819,136.098c0,14.098,0,144.964,0,144.964L290.6,243.28l39.783,37.783V136.098
	c0-17.902,7.861-25.902,21-28.569c-12.473,0-67.137,0-78.803,0C260.913,107.529,250.819,118.861,250.819,136.098z"/>
</svg>
