<?xml version="1.0" encoding="utf-8"?>
<!-- Generator: Adobe Illustrator 16.0.0, SVG Export Plug-In . SVG Version: 6.00 Build 0)  -->
<!DOCTYPE svg PUBLIC "-//W3C//DTD SVG 1.1//EN" "http://www.w3.org/Graphics/SVG/1.1/DTD/svg11.dtd">
<svg version="1.1" id="Warstwa_1" xmlns="http://www.w3.org/2000/svg" xmlns:xlink="http://www.w3.org/1999/xlink" x="0px" y="0px"
	 width="512px" height="512px" viewBox="0 0 512 512" enable-background="new 0 0 512 512" xml:space="preserve">
<path d="M256.47,477.511c-26.194,0-47.437-21.243-47.437-47.448c0-26.188,21.243-47.425,47.437-47.425
	c26.2,0,47.437,21.236,47.437,47.425C303.906,456.268,282.67,477.511,256.47,477.511z"/>
<path d="M293.763,337.296v8.533c0,0-71.117,0-78.194,0v-8.533c0-24.145,3.522-55.122,31.555-82.052
	c28.035-26.936,63.068-49.182,63.068-82.828c0-37.194-25.813-56.87-58.358-56.87c-54.232,0-57.779,56.245-59.114,68.631h-76.052
	c2.026-58.651,26.814-140.688,135.625-140.688c94.291,0,136.685,63.152,136.685,122.374
	C388.978,260.127,293.763,276.501,293.763,337.296z"/>
</svg>
