<?xml version="1.0" encoding="utf-8"?>
<!-- Generator: Adobe Illustrator 16.0.0, SVG Export Plug-In . SVG Version: 6.00 Build 0)  -->
<!DOCTYPE svg PUBLIC "-//W3C//DTD SVG 1.1//EN" "http://www.w3.org/Graphics/SVG/1.1/DTD/svg11.dtd">
<svg version="1.1" id="Warstwa_1" xmlns="http://www.w3.org/2000/svg" xmlns:xlink="http://www.w3.org/1999/xlink" x="0px" y="0px"
	 width="512px" height="512px" viewBox="0 0 512 512" enable-background="new 0 0 512 512" xml:space="preserve">
<path id="user-3-icon" fill="#33353A" d="M461.92,461.674H50.084c0-51.094-1.454-71.773,7.715-91.635
	c9.215-19.959,27.327-32.443,57.001-39.287c74.719-17.211,74.507-23.09,65.745-39.225c-41.269-75.995-48.77-143.44-21.121-189.911
	c19.392-32.596,54.594-51.29,96.579-51.29c41.669,0,76.649,18.427,95.979,50.555c33.879,56.319,10.36,132.425-20.429,190.473
	c-8.637,16.277-8.832,22.215,65.649,39.398c29.676,6.844,47.785,19.328,56.999,39.287
	C463.343,389.832,461.92,409.938,461.92,461.674z M90.121,421.559h331.762c0.015-36.076-2.381-44.496-33.693-51.719
	c-42.695-9.842-83.305-18.793-96.595-47.904c-6.652-14.567-5.132-31.184,4.521-49.379c23.14-43.625,46.81-108.913,21.489-150.997
	c-12.071-20.067-33.947-31.118-61.604-31.118c-27.896,0-49.948,11.253-62.104,31.685c-19.834,33.338-11.852,88.105,21.898,150.259
	c9.839,18.119,11.482,34.729,4.888,49.357c-13.301,29.5-54.104,38.25-96.87,48.098C92.502,377.063,90.106,385.482,90.121,421.559z"
	/>
</svg>
