<?xml version="1.0" encoding="utf-8"?>
<!-- Generator: Adobe Illustrator 16.0.0, SVG Export Plug-In . SVG Version: 6.00 Build 0)  -->
<!DOCTYPE svg PUBLIC "-//W3C//DTD SVG 1.1//EN" "http://www.w3.org/Graphics/SVG/1.1/DTD/svg11.dtd">
<svg version="1.1" id="Warstwa_1" xmlns="http://www.w3.org/2000/svg" xmlns:xlink="http://www.w3.org/1999/xlink" x="0px" y="0px"
	 width="512px" height="512px" viewBox="0 0 512 512" enable-background="new 0 0 512 512" xml:space="preserve">
<path id="user-4-icon" fill="#33353A" d="M461.698,372.725h-50.14v-50.141h-38.721v50.141h-50.141v38.721h50.141v50.14h38.721
	v-50.14h50.14V372.725z M316.437,328.886l-36.412-16.851c9.478-20.469,74.438-129.714,37.885-190.476
	c-12.07-20.067-33.949-31.118-61.604-31.118c-27.893,0-49.948,11.253-62.103,31.685c-19.834,33.338-11.853,88.105,21.897,150.259
	c9.839,18.119,11.484,34.727,4.889,49.357c-13.302,29.5-54.105,38.25-96.87,48.098c-31.314,7.223-33.71,15.643-33.695,51.719
	h194.962v40.115h-235c0-51.094-1.454-71.773,7.715-91.635c9.215-19.959,27.327-32.443,57.001-39.287
	c74.719-17.211,74.507-23.09,65.745-39.225c-41.266-75.995-48.767-143.44-21.121-189.911c19.393-32.596,54.594-51.29,96.579-51.29
	c41.669,0,76.652,18.427,95.979,50.555C400.674,181.321,330.191,299.83,316.437,328.886z"/>
</svg>
