<?xml version="1.0" encoding="utf-8"?>
<!-- Generator: Adobe Illustrator 16.0.0, SVG Export Plug-In . SVG Version: 6.00 Build 0)  -->
<!DOCTYPE svg PUBLIC "-//W3C//DTD SVG 1.1//EN" "http://www.w3.org/Graphics/SVG/1.1/DTD/svg11.dtd">
<svg version="1.1" id="Warstwa_1" xmlns="http://www.w3.org/2000/svg" xmlns:xlink="http://www.w3.org/1999/xlink" x="0px" y="0px"
	 width="410.314px" height="101.82px" viewBox="0 0 410.314 101.82" enable-background="new 0 0 410.314 101.82"
	 xml:space="preserve">
<path d="M313.617,85.307c1.158,2.342,4.492,4.592,7.397,5.18l15.492-22.124c-2.788-1.262-5.273-3.072-7.312-5.304L313.617,85.307z"
	/>
<g>
	<g>
		<path d="M29.96,50.457V40.385h6.715V31.67H29.96v-8.857H18.888v8.857h-4.714v8.715h4.714v11.714
			c0,8.145,4.286,11.716,11.858,11.716h6.215v-9.788c-1.439,0-2.357,0.001-3.572,0.001C31.175,54.028,29.96,52.957,29.96,50.457z
			 M51.396,34.527V31.67H40.181v32.145h11.215V44.957c0.571-2.285,2.644-3.668,5.714-3.668c1.786,0,3.128,0,4.644,0V31.67h-3.072
			C55.468,31.67,52.968,32.385,51.396,34.527z M83.547,51.171c-0.571,2.215-2.5,3.571-4.572,3.571c-2.856,0-4.144-1.93-4.144-4.644
			V31.67H63.688v21.073c0,7.144,4.214,11.785,11.286,11.785c3.644,0,6.857-1.5,8.572-3.5v2.786h11.215V31.67H83.547V51.171z
			 M112.823,30.956c-9.286,0-16.144,6.856-16.144,16.787c0,10.001,6.5,16.785,16.358,16.785c8.357,0,13.929-4.5,15.071-11.929
			h-10.356c-0.645,2.214-2.429,3.215-4.715,3.215c-3.214,0-5.214-2.071-5.572-5.93h20.787v-2.786
			C128.253,37.527,122.681,30.956,112.823,30.956z M107.68,44.314c0.714-3.001,2.5-4.643,5.143-4.643c2.786,0,4.43,2,4.572,4.643
			H107.68z M164.012,34.581c-1.44-1.8-4.608-3.457-8.137-3.457c-9.361,0-14.833,7.561-14.833,16.706
			c0,9.217,5.473,16.705,14.833,16.705c3.527,0,6.695-1.656,8.137-3.456v2.735h7.201V17.011h-7.201V34.581z M164.012,53.878
			c-1.224,2.52-3.96,4.248-6.913,4.248c-5.544,0-8.856-4.394-8.856-10.297c0-5.904,3.313-10.297,8.856-10.297
			c2.952,0,5.688,1.728,6.913,4.248V53.878z M190.859,31.124c-8.713,0-14.978,7.201-14.978,16.777
			c0,9.864,6.193,16.634,15.122,16.634c7.705,0,12.385-4.32,13.465-10.656h-6.625c-0.792,3.096-3.384,4.607-6.84,4.607
			c-4.608,0-7.85-3.385-8.065-9.001h21.818v-2.593C204.756,37.533,199.86,31.124,190.859,31.124z M183.155,44.229
			c0.864-4.607,3.816-7.056,7.776-7.056c4.394,0,6.625,3.168,6.697,7.056H183.155z M217.811,53.663V37.821h7.2v-5.977h-7.2v-8.569
			h-7.201v8.569h-5.04v5.977h5.04v16.635c0,6.336,4.033,9.359,9.723,9.359h5.399v-6.407h-4.104
			C219.251,57.407,217.811,56.254,217.811,53.663z M243.54,31.124c-8.713,0-14.979,7.201-14.979,16.777
			c0,9.864,6.192,16.634,15.121,16.634c7.705,0,12.386-4.32,13.466-10.656h-6.625c-0.792,3.096-3.385,4.607-6.841,4.607
			c-4.607,0-7.849-3.385-8.063-9.001h21.817v-2.593C257.437,37.533,252.541,31.124,243.54,31.124z M235.834,44.229
			c0.863-4.607,3.815-7.056,7.776-7.056c4.393,0,6.624,3.168,6.696,7.056H235.834z M274.379,37.389c3.168,0,5.545,1.584,6.12,4.464
			h7.201c-0.938-6.409-5.762-10.729-13.395-10.729c-8.641,0-14.905,6.769-14.905,16.706c0,9.937,6.266,16.705,14.905,16.705
			c7.633,0,12.457-4.32,13.395-10.729h-7.2c-0.575,2.88-2.952,4.464-6.12,4.464c-4.824,0-7.776-4.392-7.776-10.439
			S269.555,37.389,274.379,37.389z M301.33,53.663V37.821h7.201v-5.977h-7.201v-8.569h-7.199v8.569h-5.04v5.977h5.04v16.635
			c0,6.336,4.031,9.359,9.721,9.359h5.4v-6.407h-4.104C302.771,57.407,301.33,56.254,301.33,53.663z M317.914,17.803
			c-2.376,0-4.465,1.944-4.465,4.393c0,2.449,2.089,4.394,4.465,4.394c2.377,0,4.466-1.944,4.466-4.394
			C322.38,19.747,320.29,17.803,317.914,17.803z M314.314,63.815h7.201V31.844h-7.201V63.815z M384.835,31.124
			c-3.744,0-6.912,1.728-8.642,3.745v-3.024h-7.2v31.971h7.2V42.79c0.792-3.169,3.602-5.113,6.696-5.113
			c4.104,0,6.049,2.592,6.049,6.552v19.586h7.201v-20.81C396.141,35.949,392.108,31.124,384.835,31.124z"/>
	</g>
</g>
<g>
	<g>
		<path d="M345.719,27.973c-11.046,0-20,8.954-20,20s8.954,20,20,20s20-8.954,20-20S356.765,27.973,345.719,27.973z M345.719,61.973
			c-7.732,0-14-6.268-14-14c0-7.731,6.268-14,14-14c7.731,0,14,6.269,14,14C359.719,55.706,353.451,61.973,345.719,61.973z"/>
	</g>
</g>
<g>
	<path d="M352.653,47.973c0,1.627-0.563,3.12-1.502,4.303l3.577,2.833c1.556-1.962,2.491-4.438,2.491-7.136
		c0-1.578-0.319-3.081-0.896-4.45l-4.211,1.768C352.46,46.115,352.653,47.022,352.653,47.973z"/>
</g>
</svg>
